<?xml version="1.0" encoding="utf-8"?>
<!-- Generator: Adobe Illustrator 18.0.0, SVG Export Plug-In . SVG Version: 6.00 Build 0)  -->
<!DOCTYPE svg PUBLIC "-//W3C//DTD SVG 1.1//EN" "http://www.w3.org/Graphics/SVG/1.1/DTD/svg11.dtd">
<svg version="1.1" id="Layer_1" xmlns="http://www.w3.org/2000/svg" xmlns:xlink="http://www.w3.org/1999/xlink" x="0px" y="0px"
	 viewBox="0 0 510 100" enable-background="new 0 0 510 100" xml:space="preserve">
  <style type="text/css">
	.st0{fill:#2196F3;}
	.st1{fill:#FFFFFF;}
</style>
<g>
	<g>
		<polygon class="st0" points="70,19.4 50.5,0 0.5,50 50.5,100 70,80.6 39.4,50 		"/>
    <polygon class="st0" points="139.4,50 89.4,0 70,19.4 100.5,50 70,80.6 89.4,100 		"/>
	</g>
</g>
<g>
	<polygon class="st1" points="250,25 260,25 260,15 250,15 240,15 230,15 230,25 240,25 	"/>
	<polygon class="st1" points="260,25 260,35 260,45 270,45 270,35 270,25 	"/>
	<polygon class="st1" points="240,45 230,45 230,35 230,25 220,25 220,35 220,45 220,55 220,65 220,75 220,85 230,85 230,75 
		230,65 230,55 240,55 240,65 250,65 250,55 260,55 260,45 250,45 	"/>
	<rect x="250" y="65" class="st1" width="10" height="10"/>
	<rect x="260" y="75" class="st1" width="10" height="10"/>
</g>
<g>
	<polygon class="st1" points="310,25 320,25 320,15 310,15 300,15 290,15 290,25 300,25 	"/>
	<polygon class="st1" points="320,25 320,35 320,45 310,45 300,45 290,45 290,35 290,25 280,25 280,35 280,45 280,55 280,65 
		280,75 280,85 290,85 290,75 290,65 290,55 300,55 310,55 320,55 320,65 320,75 320,85 330,85 330,75 330,65 330,55 330,45 330,35 
		330,25 	"/>
</g>
<polygon class="st1" points="410,25 420,25 430,25 440,25 450,25 450,15 440,15 430,15 420,15 410,15 400,15 400,25 400,35 
	400,45 400,55 400,65 400,75 400,85 410,85 420,85 430,85 440,85 450,85 450,75 440,75 430,75 420,75 410,75 410,65 410,55 420,55 
	430,55 440,55 440,45 430,45 420,45 410,45 410,35 "/>
<g>
	<polygon class="st1" points="500,15 500,25 500,35 500,45 500,55 490,55 490,65 500,65 500,75 500,85 510,85 510,75 510,65 
		510,55 510,45 510,35 510,25 510,15 	"/>
	<polygon class="st1" points="470,35 470,25 470,15 460,15 460,25 460,35 460,45 460,55 460,65 460,75 460,85 470,85 470,75 
		470,65 470,55 470,45 480,45 480,35 	"/>
	<rect x="480" y="45" class="st1" width="10" height="10"/>
</g>
<g>
	<rect x="380" y="15" class="st1" width="10" height="10"/>
	<rect x="370" y="25" class="st1" width="10" height="10"/>
	<rect x="360" y="35" class="st1" width="10" height="10"/>
	<polygon class="st1" points="350,45 350,35 350,25 350,15 340,15 340,25 340,35 340,45 340,55 340,65 340,75 340,85 350,85 
		350,75 350,65 350,55 360,55 360,45 	"/>
	<rect x="360" y="55" class="st1" width="10" height="10"/>
	<rect x="370" y="65" class="st1" width="10" height="10"/>
	<rect x="380" y="75" class="st1" width="10" height="10"/>
</g>
<g>
	<rect x="200" y="15" class="st1" width="10" height="10"/>
	<rect x="190" y="25" class="st1" width="10" height="10"/>
	<rect x="180" y="35" class="st1" width="10" height="10"/>
	<polygon class="st1" points="170,45 170,35 170,25 170,15 160,15 160,25 160,35 160,45 160,55 160,65 160,75 160,85 170,85 
		170,75 170,65 170,55 180,55 180,45 	"/>
	<rect x="180" y="55" class="st1" width="10" height="10"/>
	<rect x="190" y="65" class="st1" width="10" height="10"/>
	<rect x="200" y="75" class="st1" width="10" height="10"/>
</g>
</svg>
