<?xml version="1.0" encoding="utf-8"?>
<!-- Generator: Adobe Illustrator 22.0.1, SVG Export Plug-In . SVG Version: 6.00 Build 0)  -->
<svg version="1.1" id="Calque_1" xmlns="http://www.w3.org/2000/svg" xmlns:xlink="http://www.w3.org/1999/xlink" x="0px" y="0px"
	 viewBox="0 0 100 100" style="enable-background:new 0 0 100 100;" xml:space="preserve">
<style type="text/css">
	.st0{fill:#FFFFFF;}
</style>
<polygon class="st0" points="15.6,75 6.4,75 0,81.4 0,90.6 6.4,97 15.6,97 22,90.6 22,81.4 "/>
<polygon class="st0" points="40.6,75 31.4,75 25,81.4 25,90.6 31.4,97 40.6,97 47,90.6 47,81.4 "/>
<polygon class="st0" points="65.6,75 56.4,75 50,81.4 50,90.6 56.4,97 65.6,97 72,90.6 72,81.4 "/>
<polygon class="st0" points="90.6,75 81.4,75 75,81.4 75,90.6 81.4,97 90.6,97 97,90.6 97,81.4 "/>
<polygon class="st0" points="15.6,50 6.4,50 0,56.4 0,65.6 6.4,72 15.6,72 22,65.6 22,56.4 "/>
<polygon class="st0" points="40.6,50 31.4,50 25,56.4 25,65.6 31.4,72 40.6,72 47,65.6 47,56.4 "/>
<polygon class="st0" points="65.6,50 56.4,50 50,56.4 50,65.6 56.4,72 65.6,72 72,65.6 72,56.4 "/>
<polygon class="st0" points="90.6,50 81.4,50 75,56.4 75,65.6 81.4,72 90.6,72 97,65.6 97,56.4 "/>
<polygon class="st0" points="15.6,25 6.4,25 0,31.4 0,40.6 6.4,47 15.6,47 22,40.6 22,31.4 "/>
<polygon class="st0" points="40.6,25 31.4,25 25,31.4 25,40.6 31.4,47 40.6,47 47,40.6 47,31.4 "/>
<polygon class="st0" points="65.6,25 56.4,25 50,31.4 50,40.6 56.4,47 65.6,47 72,40.6 72,31.4 "/>
<polygon class="st0" points="90.6,25 81.4,25 75,31.4 75,40.6 81.4,47 90.6,47 97,40.6 97,31.4 "/>
<polygon class="st0" points="15.6,0 6.4,0 0,6.4 0,15.6 6.4,22 15.6,22 22,15.6 22,6.4 "/>
<polygon class="st0" points="40.6,0 31.4,0 25,6.4 25,15.6 31.4,22 40.6,22 47,15.6 47,6.4 "/>
<polygon class="st0" points="65.6,0 56.4,0 50,6.4 50,15.6 56.4,22 65.6,22 72,15.6 72,6.4 "/>
<polygon class="st0" points="90.6,0 81.4,0 75,6.4 75,15.6 81.4,22 90.6,22 97,15.6 97,6.4 "/>
</svg>
