<?xml version="1.0" encoding="utf-8"?>
<!-- Generator: Adobe Illustrator 22.0.1, SVG Export Plug-In . SVG Version: 6.00 Build 0)  -->
<svg version="1.1" id="Calque_1" xmlns="http://www.w3.org/2000/svg" xmlns:xlink="http://www.w3.org/1999/xlink" x="0px" y="0px"
	 viewBox="0 0 790 100" style="enable-background:new 0 0 790 100;" xml:space="preserve">
<style type="text/css">
	.st0{fill:#2196F3;}
	.st1{fill:#FFFFFF;}
</style>
<g>
	<g>
		<polygon class="st0" points="69.9,19.4 50.4,0 0.4,50 50.4,100 69.9,80.6 39.3,50 		"/>
		<polygon class="st0" points="139.3,50 89.3,0 69.9,19.4 100.4,50 69.9,80.6 89.3,100 		"/>
	</g>
</g>
<g>
	<polygon class="st1" points="200,25 210,25 210,15 200,15 190,15 180,15 180,25 190,25 	"/>
	<rect x="210" y="25" class="st1" width="10" height="10"/>
	<rect x="170" y="25" class="st1" width="10" height="10"/>
	<polygon class="st1" points="220,45 220,55 220,65 230,65 230,55 230,45 230,35 220,35 	"/>
	<polygon class="st1" points="170,45 170,35 160,35 160,45 160,55 160,65 170,65 170,55 	"/>
	<rect x="210" y="65" class="st1" width="10" height="10"/>
	<rect x="170" y="65" class="st1" width="10" height="10"/>
	<polygon class="st1" points="190,75 180,75 180,85 190,85 200,85 210,85 210,75 200,75 	"/>
	<polygon class="st1" points="290,15 280,15 270,15 260,15 260,25 270,25 280,25 290,25 300,25 300,15 	"/>
	<rect x="300" y="25" class="st1" width="10" height="10"/>
	<rect x="250" y="25" class="st1" width="10" height="10"/>
	<polygon class="st1" points="240,45 240,55 240,65 250,65 250,55 250,45 250,35 240,35 	"/>
	<rect x="300" y="65" class="st1" width="10" height="10"/>
	<rect x="250" y="65" class="st1" width="10" height="10"/>
	<polygon class="st1" points="270,85 280,85 290,85 300,85 300,75 290,75 280,75 270,75 260,75 260,85 	"/>
	<polygon class="st1" points="370,15 360,15 350,15 340,15 330,15 320,15 320,25 330,25 340,25 350,25 350,35 350,45 350,55 350,65 
		350,75 350,85 360,85 360,75 360,65 360,55 360,45 360,35 360,25 370,25 380,25 390,25 390,15 380,15 	"/>
	<polygon class="st1" points="510,25 520,25 530,25 540,25 540,15 530,15 520,15 510,15 500,15 490,15 490,25 500,25 	"/>
	<polygon class="st1" points="540,35 540,45 550,45 550,35 550,25 540,25 	"/>
	<polygon class="st1" points="520,45 510,45 500,45 490,45 490,35 490,25 480,25 480,35 480,45 480,55 480,65 480,75 480,85 490,85 
		490,75 490,65 490,55 500,55 510,55 520,55 530,55 540,55 540,45 530,45 	"/>
	<polygon class="st1" points="610,15 600,15 590,15 580,15 570,15 570,25 580,25 590,25 600,25 610,25 620,25 630,25 630,15 620,15 
			"/>
	<polygon class="st1" points="560,35 560,45 560,55 560,65 560,75 570,75 570,65 570,55 580,55 590,55 600,55 600,45 590,45 580,45 
		570,45 570,35 570,25 560,25 	"/>
	<polygon class="st1" points="580,85 590,85 600,85 610,85 620,85 630,85 630,75 620,75 610,75 600,75 590,75 580,75 570,75 570,85 
			"/>
	<polygon class="st1" points="670,25 680,25 690,25 700,25 700,15 690,15 680,15 670,15 660,15 650,15 650,25 660,25 	"/>
	<polygon class="st1" points="700,35 700,45 710,45 710,35 710,25 700,25 	"/>
	<polygon class="st1" points="680,45 670,45 660,45 650,45 650,35 650,25 640,25 640,35 640,45 640,55 640,65 640,75 640,85 650,85 
		650,75 650,65 650,55 660,55 670,55 680,55 680,65 690,65 690,55 700,55 700,45 690,45 	"/>
	<rect x="690" y="65" class="st1" width="10" height="10"/>
	<rect x="700" y="75" class="st1" width="10" height="10"/>
	<polygon class="st1" points="780,15 770,15 760,15 750,15 740,15 730,15 730,25 740,25 750,25 760,25 770,25 780,25 790,25 790,15 
			"/>
	<polygon class="st1" points="720,35 720,45 720,55 720,65 720,75 720,85 730,85 730,75 730,65 730,55 740,55 750,55 760,55 760,45 
		750,45 740,45 730,45 730,35 730,25 720,25 	"/>
	<polygon class="st1" points="440,25 450,25 450,15 440,15 430,15 420,15 420,25 430,25 	"/>
	<rect x="450" y="25" class="st1" width="10" height="10"/>
	<rect x="410" y="25" class="st1" width="10" height="10"/>
	<polygon class="st1" points="460,45 460,55 460,65 470,65 470,55 470,45 470,35 460,35 	"/>
	<polygon class="st1" points="410,45 410,35 400,35 400,45 400,55 400,65 410,65 410,55 	"/>
	<rect x="450" y="65" class="st1" width="10" height="10"/>
	<rect x="410" y="65" class="st1" width="10" height="10"/>
	<polygon class="st1" points="430,75 420,75 420,85 430,85 440,85 450,85 450,75 440,75 	"/>
</g>
</svg>
